<?xml version="1.0" standalone="no"?>
<!DOCTYPE svg PUBLIC "-//W3C//DTD SVG 20010904//EN"
 "http://www.w3.org/TR/2001/REC-SVG-20010904/DTD/svg10.dtd">
<svg version="1.0" xmlns="http://www.w3.org/2000/svg"
 width="70.000000pt" height="70.000000pt" viewBox="0 0 70.000000 70.000000"
 preserveAspectRatio="xMidYMid meet">
<metadata>
Created by potrace 1.11, written by Peter Selinger 2001-2013
</metadata>
<g transform="translate(0.000000,70.000000) scale(0.100000,-0.100000)"
fill="#000000" stroke="none">
<path d="M195 599 c-66 -38 -126 -77 -132 -86 -14 -18 -19 -296 -7 -327 8 -20
263 -166 289 -166 26 0 281 146 289 166 3 9 6 82 6 164 0 126 -3 151 -17 168
-28 31 -252 152 -281 152 -15 -1 -81 -32 -147 -71z m202 25 c128 -71 204 -117
210 -127 12 -19 10 -287 -2 -303 -19 -25 -256 -153 -273 -147 -32 13 -237 135
-247 148 -12 15 -14 283 -2 302 4 6 58 40 120 76 94 54 119 67 144 76 1 1 24
-11 50 -25z"/>
<path d="M237 453 c-3 -5 -5 -54 -5 -111 -1 -100 0 -103 21 -100 19 3 21 9 19
63 l-2 60 30 -64 c17 -36 33 -67 35 -70 9 -9 28 18 51 71 l23 53 1 -57 c0 -53
2 -58 23 -58 22 0 22 2 20 102 -1 57 -3 106 -3 110 0 4 -9 6 -19 5 -15 -1 -28
-22 -52 -86 l-32 -85 -14 29 c-7 17 -24 56 -38 88 -22 51 -45 71 -58 50z"/>
<path d="M486 274 c-8 -21 11 -45 30 -37 22 8 18 53 -5 53 -10 0 -22 -7 -25
-16z"/>
</g>
</svg>
