<?xml version="1.0" standalone="no"?>
<!DOCTYPE svg PUBLIC "-//W3C//DTD SVG 20010904//EN"
 "http://www.w3.org/TR/2001/REC-SVG-20010904/DTD/svg10.dtd">
<svg version="1.0" xmlns="http://www.w3.org/2000/svg"
 width="260.000000pt" height="260.000000pt" viewBox="0 0 260.000000 260.000000"
 preserveAspectRatio="xMidYMid meet">
<metadata>
Created by potrace 1.11, written by Peter Selinger 2001-2013
</metadata>
<g transform="translate(0.000000,260.000000) scale(0.100000,-0.100000)"
fill="#000000" stroke="none">
<path d="M1266 2288 c-43 -106 -80 -198 -83 -205 -3 -8 40 -11 166 -10 94 0
171 2 171 3 0 2 -7 20 -16 41 -9 21 -21 47 -25 58 -5 11 -33 80 -63 153 -29
74 -58 138 -63 143 -5 5 -40 -67 -87 -183z"/>
<path d="M1210 2020 c-34 -5 -36 -8 -82 -120 -26 -63 -161 -394 -302 -735
-140 -341 -253 -622 -251 -624 2 -2 37 12 77 31 40 19 105 48 144 64 l71 29
239 616 c132 340 242 615 245 613 3 -2 93 -231 200 -509 l194 -505 115 6 c63
3 116 7 117 8 2 2 -149 379 -181 451 -7 17 -72 176 -145 355 l-132 325 -137 0
c-75 0 -153 -2 -172 -5z"/>
<path d="M1857 825 c-1 -2 -41 -5 -88 -9 -47 -4 -95 -8 -105 -10 -10 -2 -44
-7 -74 -11 -68 -9 -67 -9 -186 -35 -55 -12 -110 -24 -123 -26 -14 -3 -28 -7
-33 -10 -5 -3 -18 -7 -31 -10 -36 -6 -226 -70 -322 -107 -170 -66 -344 -150
-495 -239 -80 -47 -300 -197 -300 -204 0 -5 31 8 115 46 260 118 537 207 797
254 189 34 257 40 483 41 209 0 306 -7 440 -32 44 -8 94 -17 110 -19 17 -3 92
-23 168 -45 77 -21 142 -39 145 -39 13 1 -183 81 -268 109 -234 79 -402 106
-665 106 -236 0 -347 -12 -539 -61 -54 -13 -100 -23 -102 -21 -12 11 500 160
590 171 17 3 43 7 56 10 14 3 43 8 65 11 22 3 54 8 70 10 101 16 343 22 440
10 115 -13 195 -28 275 -50 46 -13 86 -22 88 -20 2 2 -22 38 -54 82 -31 43
-58 79 -58 80 -7 10 -387 27 -399 18z"/>
</g>
</svg>
